<svg id="Layer_1" data-name="Layer 1" xmlns="http://www.w3.org/2000/svg" viewBox="0 0 352.44 431.9"><defs><style>.cls-1{fill:none;stroke:#ef233c;stroke-miterlimit:10;stroke-width:5px;}.cls-2{font-size:90px;fill:#ef233c;font-family:MyriadPro-Regular, Myriad Pro;}.cls-3{letter-spacing:-0.03em;}.cls-4{letter-spacing:0em;}.cls-5{letter-spacing:-0.04em;}.cls-6{letter-spacing:-0.04em;}.cls-7{letter-spacing:0em;}</style></defs><path class="cls-1" d="M297.62,51.1A66.33,66.33,0,0,0,241.2,152.29l52.64,84.84a5.55,5.55,0,0,0,4.7,2.61h0a5.53,5.53,0,0,0,4.7-2.69l51.3-85.66a66.32,66.32,0,0,0-57-100.29Zm47.48,94.62L298.46,223.6l-47.87-77.13a55.3,55.3,0,1,1,94.51-.75Z" transform="translate(-123 -48.6)"/><path class="cls-1" d="M297.62,84.26a33.16,33.16,0,1,0,33.16,33.16A33.2,33.2,0,0,0,297.62,84.26Zm0,55.34a22.18,22.18,0,1,1,22.14-22.18A22.2,22.2,0,0,1,297.62,139.6Z" transform="translate(-123 -48.6)"/><line class="cls-1" x1="148.53" y1="152.57" x2="22.67" y2="191.14"/><line class="cls-1" x1="174.6" y1="230.07" x2="22.67" y2="191.14"/><line class="cls-1" x1="202.96" y1="153.17" x2="328.82" y2="191.74"/><line class="cls-1" x1="176.89" y1="230.67" x2="328.82" y2="191.74"/><line class="cls-1" x1="23" y1="191.14" x2="23" y2="266.74"/><line class="cls-1" x1="175.74" y1="228.94" x2="175.74" y2="304.54"/><line class="cls-1" x1="326.67" y1="191.14" x2="326.67" y2="266.74"/><line class="cls-1" x1="23" y1="266.74" x2="175.74" y2="304.54"/><line class="cls-1" x1="326.67" y1="266.74" x2="175.74" y2="304.54"/><text class="cls-2" transform="translate(0 409.4)"><tspan class="cls-3">V</tspan><tspan class="cls-4" x="47.25" y="0">an</tspan><tspan class="cls-5" x="140.58" y="0"> </tspan><tspan class="cls-6" x="155.97" y="0">T</tspan><tspan class="cls-7" x="196.65" y="0">r</tspan><tspan x="225.63" y="0">ack</tspan></text></svg>