<svg id="Layer_1" data-name="Layer 1" xmlns="http://www.w3.org/2000/svg" viewBox="0 0 1550.99 336.97"><defs><style>.cls-1{fill:none;stroke:#EF233C;stroke-miterlimit:10;stroke-width:5px;}.cls-2{font-size:310px;fill:#EF233C;font-family:MyriadPro-Regular, Myriad Pro;}.cls-3{letter-spacing:-0.03em;}.cls-4{letter-spacing:-0.04em;}.cls-5{letter-spacing:-0.04em;}.cls-6{letter-spacing:0em;}.cls-7{letter-spacing:0em;}</style></defs><path class="cls-1" d="M164.62,31.1A66.33,66.33,0,0,0,108.2,132.29l52.64,84.84a5.55,5.55,0,0,0,4.7,2.61h0a5.53,5.53,0,0,0,4.7-2.69l51.3-85.66a66.32,66.32,0,0,0-57-100.29Zm47.48,94.62L165.46,203.6l-47.87-77.13a55.3,55.3,0,1,1,94.51-.75Z" transform="translate(-10.5 -12.63)"/><path class="cls-1" d="M164.62,64.26a33.16,33.16,0,1,0,33.16,33.16A33.2,33.2,0,0,0,164.62,64.26Zm0,55.34a22.18,22.18,0,1,1,22.14-22.18A22.2,22.2,0,0,1,164.62,119.6Z" transform="translate(-10.5 -12.63)"/><line class="cls-1" x1="128.03" y1="168.54" x2="2.17" y2="207.11"/><line class="cls-1" x1="154.1" y1="246.04" x2="2.17" y2="207.11"/><line class="cls-1" x1="182.46" y1="169.14" x2="308.32" y2="207.72"/><line class="cls-1" x1="156.39" y1="246.64" x2="308.32" y2="207.72"/><line class="cls-1" x1="2.5" y1="207.11" x2="2.5" y2="282.71"/><line class="cls-1" x1="155.24" y1="244.91" x2="155.24" y2="320.51"/><line class="cls-1" x1="306.17" y1="207.11" x2="306.17" y2="282.71"/><line class="cls-1" x1="2.5" y1="282.71" x2="155.24" y2="320.51"/><line class="cls-1" x1="306.17" y1="282.71" x2="155.24" y2="320.51"/><text class="cls-2" transform="translate(337.04 259.47)"><tspan class="cls-3">V</tspan><tspan x="162.75" y="0">an</tspan><tspan class="cls-4" x="484.22" y="0"> </tspan><tspan class="cls-5" x="537.23" y="0">T</tspan><tspan class="cls-6" x="677.35" y="0">r</tspan><tspan class="cls-7" x="777.17" y="0">ack</tspan></text></svg>
